<svg id="fbSVG" xmlns="http://www.w3.org/2000/svg" viewBox="0 0 130 130">
    <path d="M1.51,64.81c0-11.82-1.01-23.75,.24-35.43C3.59,12.04,16.47,1.2,34.1,.96c20.52-.29,41.05-.27,61.57-.01,19.37,.24,33.07,13.79,33.37,33.13,.32,20.5,.29,41.02,.01,61.52-.26,19.56-14.06,33.16-33.66,33.35-20.19,.2-40.38,.17-60.57,0-20.09-.17-33.72-14-33.91-34.14-.09-10-.02-20.01-.02-30.01h.62Zm53.48,.41v39.28h15.3v-39.65h12.07c.47-5.49,.9-10.55,1.37-16.05-4.33-.2-8.37-.38-13.15-.59,.66-3.22,.4-7.22,1.86-7.99,2.98-1.58,6.88-1.42,10.73-2.03v-13.31c-8.2,.61-16.45-1.98-23.55,3.41-6.59,5-5.62,12.61-6.1,19.8l-6.69,.86v15.76c2.69,.17,5.1,.31,8.16,.5Z" />
</svg>