<svg xmlns="http://www.w3.org/2000/svg" width="15" height="16" viewBox="0 0 16.75 17.3">
    <g id="a" />
    <g id="b">
        <g id="c">
            <g>
                <path d="M0,17.3c.01-.25,.01-.5,.03-.75,.03-.38,.1-.74,.19-1.11,.1-.41,.23-.8,.4-1.19,.32-.75,.75-1.43,1.29-2.05,.61-.7,1.32-1.27,2.14-1.71,.57-.31,1.16-.54,1.79-.7,.69-.18,1.4-.24,2.11-.23,.33,0,.66,0,1,0,.48,0,.96,.03,1.43,.12,.6,.1,1.18,.28,1.74,.53,.58,.26,1.12,.58,1.63,.97,.51,.4,.97,.85,1.36,1.36,.5,.64,.89,1.34,1.17,2.1,.15,.4,.26,.82,.34,1.24,.08,.45,.13,.9,.13,1.36,0,.02,0,.04,0,.06H0Z" />
                <path d="M8.37,8.52c-2.39,0-4.31-1.97-4.25-4.37C4.17,1.79,6.15-.05,8.47,0c2.31,.05,4.21,1.98,4.15,4.37-.06,2.31-1.95,4.16-4.26,4.16Z" />
            </g>
        </g>
    </g>
</svg>