<svg id="logoIcon" 
     class="bark" 
     xmlns="http://www.w3.org/2000/svg" 
     width="120" 
     height="120" 
     viewBox="0 0 77.39 77.39">
    <defs>
        <style>
            .a {
                fill: #cdc9c3;
            }
        </style>
    </defs>
    <path class="a" d="M35.92,0h5.3c.93,.13,1.86,.25,2.79,.38,5.34,.73,10.31,2.51,14.89,5.35,5.19,3.22,9.42,7.41,12.63,12.61,3.24,5.23,5.12,10.92,5.62,17.06,.01,.18,.16,.35,.24,.52v.26c-.04,.05-.1,.1-.1,.15,0,1.54,0,3.07,0,4.61,0,.05,.07,.1,.1,.15v.26c-.08,.15-.21,.3-.24,.46-.07,.42-.09,.85-.13,1.28-.42,4.04-1.5,7.9-3.19,11.58-2.56,5.57-6.21,10.29-11,14.13-6.47,5.17-13.86,7.97-22.12,8.45-3.1,.18-6.19-.03-9.25-.62-7.04-1.35-13.24-4.41-18.57-9.18-4.77-4.26-8.28-9.42-10.51-15.43-.23-.63-.43-1.27-.68-2.01,.98,.56,1.4,.57,1.87,.07,.25-.26,.54-.54,.66-.86,.67-1.72,1.3-3.45,1.92-5.18,.17-.49,.18-1.05,.39-1.52,.65-1.42,1.13-2.9,2.02-4.22,.64-.94,.96-2.1,1.48-3.13,.37-.72,.79-1.42,1.25-2.09,1.2-1.74,2.8-3.05,4.56-4.2,1.85-1.21,3.86-1.95,6.03-2.26,1.2-.17,2.14-.45,2.56-1.81,.68-2.23,1.49-4.43,2.32-6.61,.85-2.26,2.14-4.25,3.89-5.93,.38-.36,.81-.52,1.22-.32,.26,.13,.45,.54,.54,.86,.12,.38,.13,.8,.13,1.21,.01,3.55,0,7.11,.01,10.66,0,.99,.25,1.2,1.21,1.01,.74-.15,1.47-.42,2.21-.44,1.8-.07,3.61-.13,5.4,.02,1.2,.1,2.43,.43,3.52,.93,1.57,.71,3.06,1.61,4.54,2.52,1.96,1.21,3.57,2.83,4.8,4.78,1.2,1.88,2.32,3.81,3.48,5.73,1.03,1.7,2.52,2.9,4.19,3.92,1.99,1.22,3.97,2.47,5.94,3.74,.5,.32,1,.7,1.38,1.15,.7,.85,.98,1.79-.18,2.41-.53,.28-.99,.69-1.53,.96-2.06,1.02-4.1,2.09-6.21,2.98-1.29,.55-2.69,1.02-4.07,1.15-3.38,.32-6.69-.3-9.91-1.27-2.1-.63-4.13-1.46-6.2-2.17-2.62-.89-5.05-2.17-7.43-3.56-.68-.4-1.3-.92-1.99-1.3-.55-.3-1.17-.33-1.69,.13-.5,.45-.66,1.24-.26,1.83,.36,.54,.83,1.06,1.37,1.41,1.02,.67,2.11,1.23,3.19,1.79,1.6,.82,3.17,1.72,4.83,2.38,2.3,.9,4.66,1.65,7.02,2.4,1.94,.62,3.9,1.2,5.99,1.03,.79-.06,1.6-.09,2.39,.02,3.39,.46,6.58-.32,9.68-1.56,1.65-.66,3.27-1.43,4.82-2.31,1.47-.83,2.91-1.76,4.19-2.86,1.5-1.29,1.56-2.59,.32-4.13-.78-.96-1.65-1.9-2.64-2.63-2.02-1.49-4.1-2.89-6.35-4.03-1.97-1-3.52-2.5-4.7-4.39-1.27-2.04-2.54-4.08-3.84-6.11-1.32-2.06-3.2-3.51-5.31-4.67-1.19-.65-2.42-1.22-3.6-1.88-.8-.45-1.49-1.07-1.5-2.1-.05-2.69-.11-5.38-.12-8.07,0-1.87,.09-3.74,.1-5.61,0-1.22-.06-2.45-.13-3.67-.01-.21-.14-.5-.3-.57-.14-.06-.44,.09-.58,.23-.44,.44-.81,.95-1.27,1.37-2.41,2.23-4.41,4.81-6.41,7.39-.14,.18-.48,.3-.7,.27-.12-.01-.29-.41-.27-.61,.11-1.17,.27-2.34,.41-3.51,.14-1.12,.21-2.19-.41-3.25-.49-.85-1.59-.92-2.4-.32-1.28,.94-2.53,1.92-3.76,2.92-.63,.51-1.26,1.05-1.78,1.67-.72,.85-1.34,1.78-2.02,2.67-1.69,2.21-2.67,4.74-3.48,7.36-.66,2.15-1.65,3.83-4.2,4.22-2.46,.37-4.44,1.91-6.38,3.37-1.05,.79-2.04,1.73-2.83,2.79-1.02,1.37-1.9,2.87-2.66,4.4-1.14,2.3-2.25,4.64-3.15,7.04-.75,2-1.16,4.12-1.73,6.19-.04,.13-.13,.24-.25,.44-.1-.21-.19-.34-.21-.47-.24-1.22-.49-2.44-.68-3.67C.23,43.04,.13,42,0,40.96c0-1.51,0-3.01,0-4.52,.04-.12,.11-.24,.11-.36,.13-2.65,.6-5.25,1.31-7.8,1.71-6.1,4.74-11.47,9.08-16.09,2.64-2.81,5.63-5.19,8.99-7.09C23.82,2.64,28.44,1.02,33.39,.38c.84-.11,1.69-.25,2.53-.38Zm11.97,68.83c-.06-1.33-.09-2.73-.21-4.12-.07-.89-1.06-1.52-1.83-1.25-.53,.19-1.03,.96-1.04,1.66-.01,1.18,.04,2.37-.02,3.55-.06,1.17-.22,2.34-.33,3.51-.07,.7-.17,1.41-.15,2.11,.02,.99,1.07,1.56,1.95,1.12,.92-.46,1.37-1.22,1.43-2.21,.09-1.44,.13-2.87,.2-4.38Z" />
    <path class="a" d="M42.76,17.01c0,1.39,.07,2.79-.02,4.18-.07,1.03-.62,1.4-1.64,1.41-.95,0-1.89,0-2.84,0-.83-.01-1.29-.45-1.29-1.28,0-1.5,.58-2.87,1.21-4.17,.7-1.44,1.61-2.78,2.45-4.15,.16-.27,.42-.5,.68-.67,.67-.45,1.26-.21,1.45,.57,.07,.29,.1,.59,.11,.89,.01,1.08,0,2.15,0,3.23h-.12Z" />
</svg>