<svg id="logoSlogin" 
    xmlns="http://www.w3.org/2000/svg" 
    width="304" 
    height="71" 
    viewBox="0 0 489 174.3">
    <defs>
        <style>
            .b {
                fill: #605e5b;
            }
        </style>
    </defs>
    <path class="b" d="M214.46,133.78c-.64,0-1.04,.03-1.43,0-4.2-.4-8.4-.8-12.98-1.24,1.25-3.25,2.49-6.28,3.59-9.37,3.1-8.69,6.11-17.41,9.27-26.07,.32-.89,1.46-2.16,2.17-2.12,8.84,.42,17.69,.87,26.49,1.73,3.03,.29,6.1,1.39,8.88,2.7,7.06,3.32,9.57,9.62,7.22,17.04-1.95,6.14-6.28,10.17-11.72,13.17-8.62,4.75-17.92,5.4-27.87,4.5,1.23-3.8,2.31-7.42,3.64-10.93,.21-.55,1.55-.85,2.41-.94,4.09-.4,8.24-.39,12.26-1.11,3.42-.61,6.41-2.41,7.96-5.84,1.54-3.41,.71-6.81-2.78-7.63-5.52-1.28-11.26-1.63-16.93-2.18-.46-.05-1.3,1.3-1.58,2.12-2.65,8-5.21,16.02-7.8,24.03-.22,.67-.49,1.31-.81,2.15Z" />
    <path class="b" d="M331.22,110.4c0,3.3,.11,5.99-.06,8.66-.05,.85-.65,1.91-1.34,2.42-4.69,3.51-9.91,4.32-15.4,2.3-5.04-1.85-7.59-6.26-6.42-11.52,.59-2.67,1.66-5.48,3.29-7.64,6.49-8.6,15.25-12.85,26.13-12.33,5.41,.26,8.72,3.05,9.49,8.36,.66,4.56,1.1,9.21,.98,13.81-.07,2.7-.97,5.59-2.23,8.01-4.59,8.78-18.46,15.79-28.86,14.75,.19-2.95,.39-5.92,.58-8.96,3.16-.77,6.22-1.32,9.16-2.26,6.15-1.97,7.99-4.69,7.87-11.08-.05-2.81-.07-5.63-.14-8.44-.06-2.48-1.5-4.04-3.84-3.42-2.61,.69-5.24,1.88-7.42,3.45-1.83,1.31-2.76,3.57-1.02,5.82,1.21,1.56,4.81,1.76,6.71,.42,.73-.51,1.32-1.21,2.53-2.35Z" />
    <path class="b" d="M365.39,123.44c-.31-3.37-.58-6.24-.86-9.23,2.81-1.08,5.56-2.01,8.19-3.19,6.38-2.86,7.91-5.69,6.93-12.48-.39-2.68-.83-5.35-1.27-8.02-.43-2.59-2.12-3.94-4.49-2.96-2.41,.99-4.75,2.5-6.63,4.29-1.63,1.56-2.29,3.89-.3,5.91,1.44,1.47,4.85,1.26,6.68-.37,.72-.64,1.28-1.46,2.12-2.45,.46,2.94,.99,5.55,1.23,8.2,.08,.84-.33,1.99-.92,2.6-4.21,4.33-9.47,5.66-15.21,4.35-5.94-1.35-9.05-6.74-7.46-13.08,2.77-11.04,10.65-17.06,21.06-20.3,1.61-.5,3.36-.67,5.05-.73,5.96-.22,9.35,2.13,10.88,7.81,1.04,3.87,2.13,7.81,2.39,11.77,.21,3.3,0,7.03-1.37,9.94-5.05,10.71-14.47,15.55-26.04,17.94Z" />
    <path class="b" d="M76.75,82.2c-2.5,2.32-5.19,4.8-8.3,7.69-3.07-2.43-6.96-5-10.18-8.21-3.25-3.25-5.61-7.36-3.96-12.24,1.68-4.97,5.93-7,10.75-7.49,12.42-1.27,23.02,2.83,31.48,11.89,4.07,4.36,3.81,9.57-.04,14.19-3.08,3.7-6.26,7.31-9.54,11.14-4.64-2.41-9.14-4.76-13.96-7.27,3.1-3.26,6.02-6.27,8.87-9.35,3.16-3.41,2.86-6.37-1.29-8.44-2.22-1.11-4.96-1.6-7.46-1.58-1.32,0-3.27,1.46-3.73,2.71-.38,1.02,.66,3.13,1.7,4,1.62,1.34,3.77,2.02,5.67,2.96Z" />
    <path class="b" d="M69.64,44.63l-7.2,6.48c-2.43-.91-4.47-1.97-6.63-2.39-1.94-.37-3.25,.79-3.21,2.98,.02,.9,.02,1.81,.01,2.71-.03,6.23-3.23,9.67-9.5,10.15-6.11,.47-11.89-.92-17.02-4.1-4.58-2.84-8.78-6.3-13.64-9.84l10.25-6.85c1.23,3.8,3.76,6.09,7.47,7.12,2.29,.63,3.84-.12,3.57-2.5-1.15-10.3,6.84-14.09,17.1-12.59,6.32,.92,9.35,2.43,18.79,8.82Z" />
    <path class="b" d="M277.85,132.76c-2.63-.57-5.38-.82-7.88-1.75-7.64-2.87-9.85-9.58-5.6-16.56,2.48-4.08,6.16-6.87,10.38-8.93,5.71-2.79,11.69-4.36,18.09-3.03,10.29,2.13,13.66,11.42,7.02,19.6-5.61,6.91-13.16,9.98-22.01,10.68Zm3.33-9.47c2.76-1.69,5.52-2.79,7.45-4.72,2.29-2.28,.98-5.44-2.22-6.13-3.04-.65-5.97,.13-8.04,2.33-1.14,1.21-2.16,3.51-1.77,4.9,.38,1.36,2.64,2.19,4.58,3.62Z" />
    <path class="b" d="M151.74,111.04c1.1-4.31,1.76-4.72,5.44-3.8,1.46,.37,2.92,.68,4.37,1.01,1.18-3.15,.48-4.64-2.47-5.44-3.09-.84-6.81,.35-8.72,2.78-2.65,3.37-1.69,6.56,2.39,7.95,1.69,.57,3.91,.64,4.95,1.79,2.03,2.24,3.41,5.09,5.38,8.19-9.77,.76-18.48-.33-25.57-6.77-5.77-5.24-5.12-12.3,1.15-17.01,8.66-6.52,26.44-5.8,34.59,1.4,3.98,3.52,5.37,8.19,3.68,12.43-.74,1.85-1.76,2.94-4.11,2.36-7-1.73-14.04-3.27-21.08-4.89Z" />
    <path class="b" d="M448.84,63.78c-4.38,6.59-9.72,11.18-16.8,13.37-10.15,3.14-17.31-3.37-15.45-13.85,1.66-9.35,11.18-19.36,20.4-21.44,5.68-1.28,10.94,.8,13.3,5.23,1.03,1.94,1,3.44-1.05,4.85-5.54,3.8-10.97,7.76-16.42,11.64-2.68-3.06-2.56-4.29,.42-6.35,1.22-.85,2.42-1.71,3.63-2.57-2.13-3.16-3.86-3.48-6.44-1.15-2.55,2.3-3.32,5.22-2.39,8.49,.95,3.35,4.19,4.98,6.71,2.73,4.54-4.05,8.97-1.57,14.08-.95Z" />
    <path class="b" d="M106.86,76.47c4.78,2.05,8.76,3.68,12.65,5.51,.64,.3,1.21,1.47,1.22,2.25,.03,1.98-.28,3.97-.5,6.37,2.63-1.4,4.85-2.76,7.23-3.76,1.14-.48,2.69-.66,3.86-.31,3.61,1.07,7.12,2.46,10.67,3.72l.29,.93c-11.77,6.02-23.54,12.04-35.43,18.13v-32.84Z" />
    <path class="b" d="M399.56,96.56c-1.85-7.94-3.59-15.53-5.38-23.12q-1.41-6,3.94-8.91c1.92-1.04,3.84-2.1,6.14-3.35,2.32,8.49,4.42,16.71,6.86,24.83,.91,3.03,.52,4.75-2.6,5.97-2.97,1.17-5.72,2.89-8.96,4.57Z" />
    <path class="b" d="M402.21,55.47c.08,3.86-4.39,7.89-8.23,7.43-2.36-.28-3.23-1.86-3.2-3.97,.05-3.39,3.46-6.96,6.85-7.33,2.7-.29,4.52,1.25,4.58,3.87Z" />
</svg>