<svg id="twiSVG" xmlns="http://www.w3.org/2000/svg" viewBox="0 0 130 130">
    <path d="M1.37,65.13c0-11.66-.51-23.34,.13-34.96C2.34,14.76,14.65,1.18,34.78,.95c20.16-.23,40.32-.28,60.47,.02,20.17,.31,33.61,14.16,33.73,34.31,.11,19.84,.13,39.67,0,59.51-.14,20.14-13.71,33.89-33.87,34.12-19.99,.23-39.99,.22-59.98,.01-20.75-.22-34.11-13.97-34.2-34.79-.04-9.67,0-19.34,0-29.01h.45Zm25.81,25.8c.4,.26,1.05,.74,1.76,1.11,25.85,13.51,58.2-.53,65.99-28.6,2.13-7.68,.41-16.92,8.8-22.26l-5.62,.82,4.68-7.52c-3.94,1.34-6.61,3.04-9.16,2.89-2.54-.15-4.9-2.31-7.44-3.34-8.92-3.59-19.31,1.56-21.76,10.85-.62,2.35-.53,4.88-.77,7.44-13.59-.37-23.92-7.12-33.1-16.32-4.19,8.07-2,14.57,3.46,20.91l-5.92-.9c.85,7.59,4.98,12.18,11.77,15.62-2.49,.25-4.05,.4-5.75,.57,2.19,6.79,7.51,9.42,13.57,11.16l.13,1.55-20.65,6Z" />
</svg>